<svg xmlns="http://www.w3.org/2000/svg" xmlns:xlink="http://www.w3.org/1999/xlink" width="1280" height="800" viewBox="0 0 1280 800">
  <defs>
    <linearGradient id="linear-gradient" x1="0.5" x2="0.5" y2="1" gradientUnits="objectBoundingBox">
      <stop offset="0" stop-color="#0083b0"/>
      <stop offset="1" stop-color="#00b4db"/>
    </linearGradient>
    <linearGradient id="linear-gradient-4" x1="0.699" y1="0.519" x2="0.469" y2="0" xlink:href="#linear-gradient"/>
    <clipPath id="clip-SVG">
      <rect width="1280" height="800"/>
    </clipPath>
  </defs>
  <g id="SVG" clip-path="url(#clip-SVG)">
    <rect width="1280" height="800" fill="#fff"/>
    <path id="Path_9" data-name="Path 9" d="M-1339.993-460.752s189.492-34.2,222.352,77.361,85.438,226.385-19.716,280.13-188.4,51.3-188.4,51.3l-18.586-402.127Z" transform="translate(1145.271 13.929) rotate(-50)" opacity="0.496" fill="url(#linear-gradient)"/>
    <path id="Path_10" data-name="Path 10" d="M-1258.211-997.635s-60.294,46.162-5.182,140.372c36.271,57.939,88.557,170.048,61.707,256.25s-88.557,131.422-143.2,139.9-23.552-541.47-23.552-541.47Z" transform="translate(1334 984.918)" opacity="0.496" fill="url(#linear-gradient)"/>
    <path id="Path_11" data-name="Path 11" d="M-919.654-1012.842s-199.96,241.7-106.672,379.514c34.63,50.178,37.457,71.38,132.159,106.716S-919.654-1012.842-919.654-1012.842Z" transform="translate(2184.314 835.696)" opacity="0.496" fill="url(#linear-gradient)"/>
    <path id="Path_12" data-name="Path 12" d="M-1147.136-140.842s12.532-188.046-32.268-264.144c-24.539-65.606-34.012-204.108,177.1-240.316s177.359,175.057,177.359,175.057L-813.9-95.121Z" transform="translate(2174.929 1105.33)" opacity="0.496" fill="url(#linear-gradient-4)"/>
  </g>
</svg>
